<?xml version="1.0" encoding="UTF-8" standalone="no"?><svg width="800" height="800" xmlns="http://www.w3.org/2000/svg"><style>.podpis { font-family: "Tahoma", sans-serif; font-size: 20px; }</style><rect fill="#f00" stroke="#000" x="0" y="447.1" width="20" height="147.10000000000002"/><rect fill="#f00" stroke="#000" x="30" y="447.41999999999996" width="20" height="147.41999999999996"/><rect fill="#f00" stroke="#000" x="60" y="448.43" width="20" height="148.43"/><rect fill="#f00" stroke="#000" x="90" y="447.79" width="20" height="147.79000000000002"/><rect fill="#f00" stroke="#000" x="120" y="447.68999999999994" width="20" height="147.68999999999994"/><rect fill="#f00" stroke="#000" x="150" y="446.42" width="20" height="146.42000000000002"/><rect fill="#f00" stroke="#000" x="180" y="447.89000000000004" width="20" height="147.89000000000004"/><rect fill="#f00" stroke="#000" x="210" y="447.32000000000005" width="20" height="147.32000000000005"/><rect fill="#f00" stroke="#000" x="240" y="447.45" width="20" height="147.45"/><rect fill="#f00" stroke="#000" x="270" y="447.67" width="20" height="147.67000000000002"/><rect fill="#f00" stroke="#000" x="300" y="444.48999999999995" width="20" height="144.48999999999995"/><rect fill="#f00" stroke="#000" x="330" y="442.76" width="20" height="142.76"/><rect fill="#f00" stroke="#000" x="360" y="443.85" width="20" height="143.85000000000002"/><rect fill="#f00" stroke="#000" x="390" y="444.32" width="20" height="144.32"/><rect fill="#f00" stroke="#000" x="420" y="444.40999999999997" width="20" height="144.40999999999997"/><rect fill="#f00" stroke="#000" x="450" y="443.47" width="20" height="143.47000000000003"/><rect fill="#f00" stroke="#000" x="480" y="443.48" width="20" height="143.48000000000002"/><rect fill="#f00" stroke="#000" x="510" y="444.93" width="20" height="144.93"/><rect fill="#f00" stroke="#000" x="540" y="451.49" width="20" height="151.49"/><rect fill="#f00" stroke="#000" x="570" y="450.69" width="20" height="150.69"/><rect fill="#f00" stroke="#000" x="600" y="450.19" width="20" height="150.19"/><rect fill="#f00" stroke="#000" x="630" y="450.84" width="20" height="150.83999999999997"/><rect fill="#f00" stroke="#000" x="660" y="448.78999999999996" width="20" height="148.78999999999996"/><rect fill="#f00" stroke="#000" x="690" y="450.51" width="20" height="150.51"/><rect fill="#f00" stroke="#000" x="720" y="452.71999999999997" width="20" height="152.71999999999997"/><rect fill="#f00" stroke="#000" x="750" y="461.47999999999996" width="20" height="161.47999999999996"/><rect fill="#f00" stroke="#000" x="780" y="454.84999999999997" width="20" height="154.84999999999997"/><rect fill="#f00" stroke="#000" x="810" y="454.46" width="20" height="154.45999999999998"/><rect fill="#f00" stroke="#000" x="840" y="449.73" width="20" height="149.73000000000002"/><rect fill="#f00" stroke="#000" x="870" y="451.89000000000004" width="20" height="151.89000000000004"/></svg>