<?xml version="1.0" encoding="UTF-8" standalone="no"?><svg width="800" height="800" xmlns="http://www.w3.org/2000/svg"><style>.podpis { font-family: "Tahoma", sans-serif; font-size: 20px; }</style><rect fill="#f00" stroke="#000" x="404" y="52" width="175" height="187" opacity="0.5" /><text class="podpis" x="404" y="52">(404,52)</text><rect fill="#f00" stroke="#000" x="232" y="442" width="194" height="142" opacity="0.5" /><text class="podpis" x="232" y="442">(232,442)</text><rect fill="#f00" stroke="#000" x="306" y="66" width="196" height="192" opacity="0.5" /><text class="podpis" x="306" y="66">(306,66)</text><rect fill="#f00" stroke="#000" x="35" y="420" width="164" height="136" opacity="0.5" /><text class="podpis" x="35" y="420">(35,420)</text><rect fill="#f00" stroke="#000" x="458" y="241" width="116" height="175" opacity="0.5" /><text class="podpis" x="458" y="241">(458,241)</text><rect fill="#f00" stroke="#000" x="30" y="359" width="158" height="106" opacity="0.5" /><text class="podpis" x="30" y="359">(30,359)</text><rect fill="#f00" stroke="#000" x="421" y="552" width="113" height="121" opacity="0.5" /><text class="podpis" x="421" y="552">(421,552)</text><rect fill="#f00" stroke="#000" x="30" y="594" width="112" height="184" opacity="0.5" /><text class="podpis" x="30" y="594">(30,594)</text><rect fill="#f00" stroke="#000" x="340" y="329" width="132" height="133" opacity="0.5" /><text class="podpis" x="340" y="329">(340,329)</text><rect fill="#f00" stroke="#000" x="200" y="332" width="198" height="105" opacity="0.5" /><text class="podpis" x="200" y="332">(200,332)</text><rect fill="#f00" stroke="#000" x="520" y="127" width="155" height="184" opacity="0.5" /><text class="podpis" x="520" y="127">(520,127)</text><rect fill="#f00" stroke="#000" x="585" y="599" width="125" height="153" opacity="0.5" /><text class="podpis" x="585" y="599">(585,599)</text><rect fill="#f00" stroke="#000" x="497" y="589" width="161" height="155" opacity="0.5" /><text class="podpis" x="497" y="589">(497,589)</text><rect fill="#f00" stroke="#000" x="212" y="538" width="170" height="125" opacity="0.5" /><text class="podpis" x="212" y="538">(212,538)</text><rect fill="#f00" stroke="#000" x="264" y="156" width="112" height="176" opacity="0.5" /><text class="podpis" x="264" y="156">(264,156)</text></svg>