P3 64 64 255
239 0 64
239 4 62
239 8 61
239 12 60
240 16 59
240 20 58
240 24 57
240 28 56
241 32 55
241 36 54
241 40 53
241 44 52
242 48 51
242 52 50
242 56 49
242 60 48
243 64 47
243 68 46
243 72 45
243 76 44
244 80 43
244 85 42
244 89 41
244 93 40
245 97 39
245 101 38
245 105 37
245 109 36
246 113 35
246 117 34
246 121 33
246 125 32
247 129 31
247 133 30
247 137 29
247 141 28
248 145 27
248 149 26
248 153 25
248 157 24
249 161 23
249 165 22
249 169 21
249 174 20
250 178 19
250 182 18
250 186 17
250 190 16
251 194 15
251 198 14
251 202 13
251 206 12
252 210 11
252 214 10
252 218 9
252 222 8
253 226 7
253 230 6
253 234 5
253 238 4
254 242 3
254 246 2
254 250 1
254 254 0
239 0 64
239 4 62
239 8 61
239 12 60
240 16 59
240 20 58
240 24 57
240 28 56
241 32 55
241 36 54
241 40 53
241 44 52
242 48 51
242 52 50
242 56 49
242 60 48
243 64 47
243 68 46
243 72 45
243 76 44
244 80 43
244 85 42
244 89 41
244 93 40
245 97 39
245 101 38
245 105 37
245 109 36
246 113 35
246 117 34
246 121 33
246 125 32
247 129 31
247 133 30
247 137 29
247 141 28
248 145 27
248 149 26
248 153 25
248 157 24
249 161 23
249 165 22
249 169 21
249 174 20
250 178 19
250 182 18
250 186 17
250 190 16
251 194 15
251 198 14
251 202 13
251 206 12
252 210 11
252 214 10
252 218 9
252 222 8
253 226 7
253 230 6
253 234 5
253 238 4
254 242 3
254 246 2
254 250 1
254 254 0
239 0 64
239 4 62
239 8 61
239 12 60
240 16 59
240 20 58
240 24 57
240 28 56
241 32 55
241 36 54
241 40 53
241 44 52
242 48 51
242 52 50
242 56 49
242 60 48
243 64 47
243 68 46
243 72 45
243 76 44
244 80 43
244 85 42
244 89 41
244 93 40
245 97 39
245 101 38
245 105 37
245 109 36
246 113 35
246 117 34
246 121 33
246 125 32
247 129 31
247 133 30
247 137 29
247 141 28
248 145 27
248 149 26
248 153 25
248 157 24
249 161 23
249 165 22
249 169 21
249 174 20
250 178 19
250 182 18
250 186 17
250 190 16
251 194 15
251 198 14
251 202 13
251 206 12
252 210 11
252 214 10
252 218 9
252 222 8
253 226 7
253 230 6
253 234 5
253 238 4
254 242 3
254 246 2
254 250 1
254 254 0
239 0 64
239 4 62
239 8 61
239 12 60
240 16 59
240 20 58
240 24 57
240 28 56
241 32 55
241 36 54
241 40 53
241 44 52
242 48 51
242 52 50
242 56 49
242 60 48
243 64 47
243 68 46
243 72 45
243 76 44
244 80 43
244 85 42
244 89 41
244 93 40
245 97 39
245 101 38
245 105 37
245 109 36
246 113 35
246 117 34
246 121 33
246 125 32
247 129 31
247 133 30
247 137 29
247 141 28
248 145 27
248 149 26
248 153 25
248 157 24
249 161 23
249 165 22
249 169 21
249 174 20
250 178 19
250 182 18
250 186 17
250 190 16
251 194 15
251 198 14
251 202 13
251 206 12
252 210 11
252 214 10
252 218 9
252 222 8
253 226 7
253 230 6
253 234 5
253 238 4
254 242 3
254 246 2
254 250 1
254 254 0
239 0 64
239 4 62
239 8 61
239 12 60
240 16 59
240 20 58
240 24 57
240 28 56
241 32 55
241 36 54
241 40 53
241 44 52
242 48 51
242 52 50
242 56 49
242 60 48
243 64 47
243 68 46
243 72 45
243 76 44
244 80 43
244 85 42
244 89 41
244 93 40
245 97 39
245 101 38
245 105 37
245 109 36
246 113 35
246 117 34
246 121 33
246 125 32
247 129 31
247 133 30
247 137 29
247 141 28
248 145 27
248 149 26
248 153 25
248 157 24
249 161 23
249 165 22
249 169 21
249 174 20
250 178 19
250 182 18
250 186 17
250 190 16
251 194 15
251 198 14
251 202 13
251 206 12
252 210 11
252 214 10
252 218 9
252 222 8
253 226 7
253 230 6
253 234 5
253 238 4
254 242 3
254 246 2
254 250 1
254 254 0
239 0 64
239 4 62
239 8 61
239 12 60
240 16 59
240 20 58
240 24 57
240 28 56
241 32 55
241 36 54
241 40 53
241 44 52
242 48 51
242 52 50
242 56 49
242 60 48
243 64 47
243 68 46
243 72 45
243 76 44
244 80 43
244 85 42
244 89 41
244 93 40
245 97 39
245 101 38
245 105 37
245 109 36
246 113 35
246 117 34
246 121 33
246 125 32
247 129 31
247 133 30
247 137 29
247 141 28
248 145 27
248 149 26
248 153 25
248 157 24
249 161 23
249 165 22
249 169 21
249 174 20
250 178 19
250 182 18
250 186 17
250 190 16
251 194 15
251 198 14
251 202 13
251 206 12
252 210 11
252 214 10
252 218 9
252 222 8
253 226 7
253 230 6
253 234 5
253 238 4
254 242 3
254 246 2
254 250 1
254 254 0
239 0 64
239 4 62
239 8 61
239 12 60
240 16 59
240 20 58
240 24 57
240 28 56
241 32 55
241 36 54
241 40 53
241 44 52
242 48 51
242 52 50
242 56 49
242 60 48
243 64 47
243 68 46
243 72 45
243 76 44
244 80 43
244 85 42
244 89 41
244 93 40
245 97 39
245 101 38
245 105 37
245 109 36
246 113 35
246 117 34
246 121 33
246 125 32
247 129 31
247 133 30
247 137 29
247 141 28
248 145 27
248 149 26
248 153 25
248 157 24
249 161 23
249 165 22
249 169 21
249 174 20
250 178 19
250 182 18
250 186 17
250 190 16
251 194 15
251 198 14
251 202 13
251 206 12
252 210 11
252 214 10
252 218 9
252 222 8
253 226 7
253 230 6
253 234 5
253 238 4
254 242 3
254 246 2
254 250 1
254 254 0
239 0 64
239 4 62
239 8 61
239 12 60
240 16 59
240 20 58
240 24 57
240 28 56
241 32 55
241 36 54
241 40 53
241 44 52
242 48 51
242 52 50
242 56 49
242 60 48
243 64 47
243 68 46
243 72 45
243 76 44
244 80 43
244 85 42
244 89 41
244 93 40
245 97 39
245 101 38
245 105 37
245 109 36
246 113 35
246 117 34
246 121 33
246 125 32
247 129 31
247 133 30
247 137 29
247 141 28
248 145 27
248 149 26
248 153 25
248 157 24
249 161 23
249 165 22
249 169 21
249 174 20
250 178 19
250 182 18
250 186 17
250 190 16
251 194 15
251 198 14
251 202 13
251 206 12
252 210 11
252 214 10
252 218 9
252 222 8
253 226 7
253 230 6
253 234 5
253 238 4
254 242 3
254 246 2
254 250 1
254 254 0
239 0 64
239 4 62
239 8 61
239 12 60
240 16 59
240 20 58
240 24 57
240 28 56
241 32 55
241 36 54
241 40 53
241 44 52
242 48 51
242 52 50
242 56 49
242 60 48
243 64 47
243 68 46
243 72 45
243 76 44
244 80 43
244 85 42
244 89 41
244 93 40
245 97 39
245 101 38
245 105 37
245 109 36
246 113 35
246 117 34
246 121 33
246 125 32
247 129 31
247 133 30
247 137 29
247 141 28
248 145 27
248 149 26
248 153 25
248 157 24
249 161 23
249 165 22
249 169 21
249 174 20
250 178 19
250 182 18
250 186 17
250 190 16
251 194 15
251 198 14
251 202 13
251 206 12
252 210 11
252 214 10
252 218 9
252 222 8
253 226 7
253 230 6
253 234 5
253 238 4
254 242 3
254 246 2
254 250 1
254 254 0
239 0 64
239 4 62
239 8 61
239 12 60
240 16 59
240 20 58
240 24 57
240 28 56
241 32 55
241 36 54
241 40 53
241 44 52
242 48 51
242 52 50
242 56 49
242 60 48
243 64 47
243 68 46
243 72 45
243 76 44
244 80 43
244 85 42
244 89 41
244 93 40
245 97 39
245 101 38
245 105 37
245 109 36
246 113 35
246 117 34
246 121 33
246 125 32
247 129 31
247 133 30
247 137 29
247 141 28
248 145 27
248 149 26
248 153 25
248 157 24
249 161 23
249 165 22
249 169 21
249 174 20
250 178 19
250 182 18
250 186 17
250 190 16
251 194 15
251 198 14
251 202 13
251 206 12
252 210 11
252 214 10
252 218 9
252 222 8
253 226 7
253 230 6
253 234 5
253 238 4
254 242 3
254 246 2
254 250 1
254 254 0
239 0 64
239 4 62
239 8 61
239 12 60
240 16 59
240 20 58
240 24 57
240 28 56
241 32 55
241 36 54
241 40 53
241 44 52
242 48 51
242 52 50
242 56 49
242 60 48
243 64 47
243 68 46
243 72 45
243 76 44
244 80 43
244 85 42
244 89 41
244 93 40
245 97 39
245 101 38
245 105 37
245 109 36
246 113 35
246 117 34
246 121 33
246 125 32
247 129 31
247 133 30
247 137 29
247 141 28
248 145 27
248 149 26
248 153 25
248 157 24
249 161 23
249 165 22
249 169 21
249 174 20
250 178 19
250 182 18
250 186 17
250 190 16
251 194 15
251 198 14
251 202 13
251 206 12
252 210 11
252 214 10
252 218 9
252 222 8
253 226 7
253 230 6
253 234 5
253 238 4
254 242 3
254 246 2
254 250 1
254 254 0
239 0 64
239 4 62
239 8 61
239 12 60
240 16 59
240 20 58
240 24 57
240 28 56
241 32 55
241 36 54
241 40 53
241 44 52
242 48 51
242 52 50
242 56 49
242 60 48
243 64 47
243 68 46
243 72 45
243 76 44
244 80 43
244 85 42
244 89 41
244 93 40
245 97 39
245 101 38
245 105 37
245 109 36
246 113 35
246 117 34
246 121 33
246 125 32
247 129 31
247 133 30
247 137 29
247 141 28
248 145 27
248 149 26
248 153 25
248 157 24
249 161 23
249 165 22
249 169 21
249 174 20
250 178 19
250 182 18
250 186 17
250 190 16
251 194 15
251 198 14
251 202 13
251 206 12
252 210 11
252 214 10
252 218 9
252 222 8
253 226 7
253 230 6
253 234 5
253 238 4
254 242 3
254 246 2
254 250 1
254 254 0
239 0 64
239 4 62
239 8 61
239 12 60
240 16 59
240 20 58
240 24 57
240 28 56
241 32 55
241 36 54
241 40 53
241 44 52
242 48 51
242 52 50
242 56 49
242 60 48
243 64 47
243 68 46
243 72 45
243 76 44
244 80 43
244 85 42
244 89 41
244 93 40
245 97 39
245 101 38
245 105 37
245 109 36
246 113 35
246 117 34
246 121 33
246 125 32
247 129 31
247 133 30
247 137 29
247 141 28
248 145 27
248 149 26
248 153 25
248 157 24
249 161 23
249 165 22
249 169 21
249 174 20
250 178 19
250 182 18
250 186 17
250 190 16
251 194 15
251 198 14
251 202 13
251 206 12
252 210 11
252 214 10
252 218 9
252 222 8
253 226 7
253 230 6
253 234 5
253 238 4
254 242 3
254 246 2
254 250 1
254 254 0
239 0 64
239 4 62
239 8 61
239 12 60
240 16 59
240 20 58
240 24 57
240 28 56
241 32 55
241 36 54
241 40 53
241 44 52
242 48 51
242 52 50
242 56 49
242 60 48
243 64 47
243 68 46
243 72 45
243 76 44
244 80 43
244 85 42
244 89 41
244 93 40
245 97 39
245 101 38
245 105 37
245 109 36
246 113 35
246 117 34
246 121 33
246 125 32
247 129 31
247 133 30
247 137 29
247 141 28
248 145 27
248 149 26
248 153 25
248 157 24
249 161 23
249 165 22
249 169 21
249 174 20
250 178 19
250 182 18
250 186 17
250 190 16
251 194 15
251 198 14
251 202 13
251 206 12
252 210 11
252 214 10
252 218 9
252 222 8
253 226 7
253 230 6
253 234 5
253 238 4
254 242 3
254 246 2
254 250 1
254 254 0
239 0 64
239 4 62
239 8 61
239 12 60
240 16 59
240 20 58
240 24 57
240 28 56
241 32 55
241 36 54
241 40 53
241 44 52
242 48 51
242 52 50
242 56 49
242 60 48
243 64 47
243 68 46
243 72 45
243 76 44
244 80 43
244 85 42
244 89 41
244 93 40
245 97 39
245 101 38
245 105 37
245 109 36
246 113 35
246 117 34
246 121 33
246 125 32
247 129 31
247 133 30
247 137 29
247 141 28
248 145 27
248 149 26
248 153 25
248 157 24
249 161 23
249 165 22
249 169 21
249 174 20
250 178 19
250 182 18
250 186 17
250 190 16
251 194 15
251 198 14
251 202 13
251 206 12
252 210 11
252 214 10
252 218 9
252 222 8
253 226 7
253 230 6
253 234 5
253 238 4
254 242 3
254 246 2
254 250 1
254 254 0
239 0 64
239 4 62
239 8 61
239 12 60
240 16 59
240 20 58
240 24 57
240 28 56
241 32 55
241 36 54
241 40 53
241 44 52
242 48 51
242 52 50
242 56 49
242 60 48
243 64 47
243 68 46
243 72 45
243 76 44
244 80 43
244 85 42
244 89 41
244 93 40
245 97 39
245 101 38
245 105 37
245 109 36
246 113 35
246 117 34
246 121 33
246 125 32
247 129 31
247 133 30
247 137 29
247 141 28
248 145 27
248 149 26
248 153 25
248 157 24
249 161 23
249 165 22
249 169 21
249 174 20
250 178 19
250 182 18
250 186 17
250 190 16
251 194 15
251 198 14
251 202 13
251 206 12
252 210 11
252 214 10
252 218 9
252 222 8
253 226 7
253 230 6
253 234 5
253 238 4
254 242 3
254 246 2
254 250 1
254 254 0
239 0 64
239 4 62
239 8 61
239 12 60
240 16 59
240 20 58
240 24 57
240 28 56
241 32 55
241 36 54
241 40 53
241 44 52
242 48 51
242 52 50
242 56 49
242 60 48
243 64 47
243 68 46
243 72 45
243 76 44
244 80 43
244 85 42
244 89 41
244 93 40
245 97 39
245 101 38
245 105 37
245 109 36
246 113 35
246 117 34
246 121 33
246 125 32
247 129 31
247 133 30
247 137 29
247 141 28
248 145 27
248 149 26
248 153 25
248 157 24
249 161 23
249 165 22
249 169 21
249 174 20
250 178 19
250 182 18
250 186 17
250 190 16
251 194 15
251 198 14
251 202 13
251 206 12
252 210 11
252 214 10
252 218 9
252 222 8
253 226 7
253 230 6
253 234 5
253 238 4
254 242 3
254 246 2
254 250 1
254 254 0
239 0 64
239 4 62
239 8 61
239 12 60
240 16 59
240 20 58
240 24 57
240 28 56
241 32 55
241 36 54
241 40 53
241 44 52
242 48 51
242 52 50
242 56 49
242 60 48
243 64 47
243 68 46
243 72 45
243 76 44
244 80 43
244 85 42
244 89 41
244 93 40
245 97 39
245 101 38
245 105 37
245 109 36
246 113 35
246 117 34
246 121 33
246 125 32
247 129 31
247 133 30
247 137 29
247 141 28
248 145 27
248 149 26
248 153 25
248 157 24
249 161 23
249 165 22
249 169 21
249 174 20
250 178 19
250 182 18
250 186 17
250 190 16
251 194 15
251 198 14
251 202 13
251 206 12
252 210 11
252 214 10
252 218 9
252 222 8
253 226 7
253 230 6
253 234 5
253 238 4
254 242 3
254 246 2
254 250 1
254 254 0
239 0 64
239 4 62
239 8 61
239 12 60
240 16 59
240 20 58
240 24 57
240 28 56
241 32 55
241 36 54
241 40 53
241 44 52
242 48 51
242 52 50
242 56 49
242 60 48
243 64 47
243 68 46
243 72 45
243 76 44
244 80 43
244 85 42
244 89 41
244 93 40
245 97 39
245 101 38
245 105 37
245 109 36
246 113 35
246 117 34
246 121 33
246 125 32
247 129 31
247 133 30
247 137 29
247 141 28
248 145 27
248 149 26
248 153 25
248 157 24
249 161 23
249 165 22
249 169 21
249 174 20
250 178 19
250 182 18
250 186 17
250 190 16
251 194 15
251 198 14
251 202 13
251 206 12
252 210 11
252 214 10
252 218 9
252 222 8
253 226 7
253 230 6
253 234 5
253 238 4
254 242 3
254 246 2
254 250 1
254 254 0
239 0 64
239 4 62
239 8 61
239 12 60
240 16 59
240 20 58
240 24 57
240 28 56
241 32 55
241 36 54
241 40 53
241 44 52
242 48 51
242 52 50
242 56 49
242 60 48
243 64 47
243 68 46
243 72 45
243 76 44
244 80 43
244 85 42
244 89 41
244 93 40
245 97 39
245 101 38
245 105 37
245 109 36
246 113 35
246 117 34
246 121 33
246 125 32
247 129 31
247 133 30
247 137 29
247 141 28
248 145 27
248 149 26
248 153 25
248 157 24
249 161 23
249 165 22
249 169 21
249 174 20
250 178 19
250 182 18
250 186 17
250 190 16
251 194 15
251 198 14
251 202 13
251 206 12
252 210 11
252 214 10
252 218 9
252 222 8
253 226 7
253 230 6
253 234 5
253 238 4
254 242 3
254 246 2
254 250 1
254 254 0
239 0 64
239 4 62
239 8 61
239 12 60
240 16 59
240 20 58
240 24 57
240 28 56
241 32 55
241 36 54
241 40 53
241 44 52
242 48 51
242 52 50
242 56 49
242 60 48
243 64 47
243 68 46
243 72 45
243 76 44
244 80 43
244 85 42
244 89 41
244 93 40
245 97 39
245 101 38
245 105 37
245 109 36
246 113 35
246 117 34
246 121 33
246 125 32
247 129 31
247 133 30
247 137 29
247 141 28
248 145 27
248 149 26
248 153 25
248 157 24
249 161 23
249 165 22
249 169 21
249 174 20
250 178 19
250 182 18
250 186 17
250 190 16
251 194 15
251 198 14
251 202 13
251 206 12
252 210 11
252 214 10
252 218 9
252 222 8
253 226 7
253 230 6
253 234 5
253 238 4
254 242 3
254 246 2
254 250 1
254 254 0
239 0 64
239 4 62
239 8 61
239 12 60
240 16 59
240 20 58
240 24 57
240 28 56
241 32 55
241 36 54
241 40 53
241 44 52
242 48 51
242 52 50
242 56 49
242 60 48
243 64 47
243 68 46
243 72 45
243 76 44
244 80 43
244 85 42
244 89 41
244 93 40
245 97 39
245 101 38
245 105 37
245 109 36
246 113 35
246 117 34
246 121 33
246 125 32
247 129 31
247 133 30
247 137 29
247 141 28
248 145 27
248 149 26
248 153 25
248 157 24
249 161 23
249 165 22
249 169 21
249 174 20
250 178 19
250 182 18
250 186 17
250 190 16
251 194 15
251 198 14
251 202 13
251 206 12
252 210 11
252 214 10
252 218 9
252 222 8
253 226 7
253 230 6
253 234 5
253 238 4
254 242 3
254 246 2
254 250 1
254 254 0
239 0 64
239 4 62
239 8 61
239 12 60
240 16 59
240 20 58
240 24 57
240 28 56
241 32 55
241 36 54
241 40 53
241 44 52
242 48 51
242 52 50
242 56 49
242 60 48
243 64 47
243 68 46
243 72 45
243 76 44
244 80 43
244 85 42
244 89 41
244 93 40
245 97 39
245 101 38
245 105 37
245 109 36
246 113 35
246 117 34
246 121 33
246 125 32
247 129 31
247 133 30
247 137 29
247 141 28
248 145 27
248 149 26
248 153 25
248 157 24
249 161 23
249 165 22
249 169 21
249 174 20
250 178 19
250 182 18
250 186 17
250 190 16
251 194 15
251 198 14
251 202 13
251 206 12
252 210 11
252 214 10
252 218 9
252 222 8
253 226 7
253 230 6
253 234 5
253 238 4
254 242 3
254 246 2
254 250 1
254 254 0
239 0 64
239 4 62
239 8 61
239 12 60
240 16 59
240 20 58
240 24 57
240 28 56
241 32 55
241 36 54
241 40 53
241 44 52
242 48 51
242 52 50
242 56 49
242 60 48
243 64 47
243 68 46
243 72 45
243 76 44
244 80 43
244 85 42
244 89 41
244 93 40
245 97 39
245 101 38
245 105 37
245 109 36
246 113 35
246 117 34
246 121 33
246 125 32
247 129 31
247 133 30
247 137 29
247 141 28
248 145 27
248 149 26
248 153 25
248 157 24
249 161 23
249 165 22
249 169 21
249 174 20
250 178 19
250 182 18
250 186 17
250 190 16
251 194 15
251 198 14
251 202 13
251 206 12
252 210 11
252 214 10
252 218 9
252 222 8
253 226 7
253 230 6
253 234 5
253 238 4
254 242 3
254 246 2
254 250 1
254 254 0
239 0 64
239 4 62
239 8 61
239 12 60
240 16 59
240 20 58
240 24 57
240 28 56
241 32 55
241 36 54
241 40 53
241 44 52
242 48 51
242 52 50
242 56 49
242 60 48
243 64 47
243 68 46
243 72 45
243 76 44
244 80 43
244 85 42
244 89 41
244 93 40
245 97 39
245 101 38
245 105 37
245 109 36
246 113 35
246 117 34
246 121 33
246 125 32
247 129 31
247 133 30
247 137 29
247 141 28
248 145 27
248 149 26
248 153 25
248 157 24
249 161 23
249 165 22
249 169 21
249 174 20
250 178 19
250 182 18
250 186 17
250 190 16
251 194 15
251 198 14
251 202 13
251 206 12
252 210 11
252 214 10
252 218 9
252 222 8
253 226 7
253 230 6
253 234 5
253 238 4
254 242 3
254 246 2
254 250 1
254 254 0
239 0 64
239 4 62
239 8 61
239 12 60
240 16 59
240 20 58
240 24 57
240 28 56
241 32 55
241 36 54
241 40 53
241 44 52
242 48 51
242 52 50
242 56 49
242 60 48
243 64 47
243 68 46
243 72 45
243 76 44
244 80 43
244 85 42
244 89 41
244 93 40
245 97 39
245 101 38
245 105 37
245 109 36
246 113 35
246 117 34
246 121 33
246 125 32
247 129 31
247 133 30
247 137 29
247 141 28
248 145 27
248 149 26
248 153 25
248 157 24
249 161 23
249 165 22
249 169 21
249 174 20
250 178 19
250 182 18
250 186 17
250 190 16
251 194 15
251 198 14
251 202 13
251 206 12
252 210 11
252 214 10
252 218 9
252 222 8
253 226 7
253 230 6
253 234 5
253 238 4
254 242 3
254 246 2
254 250 1
254 254 0
239 0 64
239 4 62
239 8 61
239 12 60
240 16 59
240 20 58
240 24 57
240 28 56
241 32 55
241 36 54
241 40 53
241 44 52
242 48 51
242 52 50
242 56 49
242 60 48
243 64 47
243 68 46
243 72 45
243 76 44
244 80 43
244 85 42
244 89 41
244 93 40
245 97 39
245 101 38
245 105 37
245 109 36
246 113 35
246 117 34
246 121 33
246 125 32
247 129 31
247 133 30
247 137 29
247 141 28
248 145 27
248 149 26
248 153 25
248 157 24
249 161 23
249 165 22
249 169 21
249 174 20
250 178 19
250 182 18
250 186 17
250 190 16
251 194 15
251 198 14
251 202 13
251 206 12
252 210 11
252 214 10
252 218 9
252 222 8
253 226 7
253 230 6
253 234 5
253 238 4
254 242 3
254 246 2
254 250 1
254 254 0
239 0 64
239 4 62
239 8 61
239 12 60
240 16 59
240 20 58
240 24 57
240 28 56
241 32 55
241 36 54
241 40 53
241 44 52
242 48 51
242 52 50
242 56 49
242 60 48
243 64 47
243 68 46
243 72 45
243 76 44
244 80 43
244 85 42
244 89 41
244 93 40
245 97 39
245 101 38
245 105 37
245 109 36
246 113 35
246 117 34
246 121 33
246 125 32
247 129 31
247 133 30
247 137 29
247 141 28
248 145 27
248 149 26
248 153 25
248 157 24
249 161 23
249 165 22
249 169 21
249 174 20
250 178 19
250 182 18
250 186 17
250 190 16
251 194 15
251 198 14
251 202 13
251 206 12
252 210 11
252 214 10
252 218 9
252 222 8
253 226 7
253 230 6
253 234 5
253 238 4
254 242 3
254 246 2
254 250 1
254 254 0
239 0 64
239 4 62
239 8 61
239 12 60
240 16 59
240 20 58
240 24 57
240 28 56
241 32 55
241 36 54
241 40 53
241 44 52
242 48 51
242 52 50
242 56 49
242 60 48
243 64 47
243 68 46
243 72 45
243 76 44
244 80 43
244 85 42
244 89 41
244 93 40
245 97 39
245 101 38
245 105 37
245 109 36
246 113 35
246 117 34
246 121 33
246 125 32
247 129 31
247 133 30
247 137 29
247 141 28
248 145 27
248 149 26
248 153 25
248 157 24
249 161 23
249 165 22
249 169 21
249 174 20
250 178 19
250 182 18
250 186 17
250 190 16
251 194 15
251 198 14
251 202 13
251 206 12
252 210 11
252 214 10
252 218 9
252 222 8
253 226 7
253 230 6
253 234 5
253 238 4
254 242 3
254 246 2
254 250 1
254 254 0
239 0 64
239 4 62
239 8 61
239 12 60
240 16 59
240 20 58
240 24 57
240 28 56
241 32 55
241 36 54
241 40 53
241 44 52
242 48 51
242 52 50
242 56 49
242 60 48
243 64 47
243 68 46
243 72 45
243 76 44
244 80 43
244 85 42
244 89 41
244 93 40
245 97 39
245 101 38
245 105 37
245 109 36
246 113 35
246 117 34
246 121 33
246 125 32
247 129 31
247 133 30
247 137 29
247 141 28
248 145 27
248 149 26
248 153 25
248 157 24
249 161 23
249 165 22
249 169 21
249 174 20
250 178 19
250 182 18
250 186 17
250 190 16
251 194 15
251 198 14
251 202 13
251 206 12
252 210 11
252 214 10
252 218 9
252 222 8
253 226 7
253 230 6
253 234 5
253 238 4
254 242 3
254 246 2
254 250 1
254 254 0
239 0 64
239 4 62
239 8 61
239 12 60
240 16 59
240 20 58
240 24 57
240 28 56
241 32 55
241 36 54
241 40 53
241 44 52
242 48 51
242 52 50
242 56 49
242 60 48
243 64 47
243 68 46
243 72 45
243 76 44
244 80 43
244 85 42
244 89 41
244 93 40
245 97 39
245 101 38
245 105 37
245 109 36
246 113 35
246 117 34
246 121 33
246 125 32
247 129 31
247 133 30
247 137 29
247 141 28
248 145 27
248 149 26
248 153 25
248 157 24
249 161 23
249 165 22
249 169 21
249 174 20
250 178 19
250 182 18
250 186 17
250 190 16
251 194 15
251 198 14
251 202 13
251 206 12
252 210 11
252 214 10
252 218 9
252 222 8
253 226 7
253 230 6
253 234 5
253 238 4
254 242 3
254 246 2
254 250 1
254 254 0
239 0 64
239 4 62
239 8 61
239 12 60
240 16 59
240 20 58
240 24 57
240 28 56
241 32 55
241 36 54
241 40 53
241 44 52
242 48 51
242 52 50
242 56 49
242 60 48
243 64 47
243 68 46
243 72 45
243 76 44
244 80 43
244 85 42
244 89 41
244 93 40
245 97 39
245 101 38
245 105 37
245 109 36
246 113 35
246 117 34
246 121 33
246 125 32
247 129 31
247 133 30
247 137 29
247 141 28
248 145 27
248 149 26
248 153 25
248 157 24
249 161 23
249 165 22
249 169 21
249 174 20
250 178 19
250 182 18
250 186 17
250 190 16
251 194 15
251 198 14
251 202 13
251 206 12
252 210 11
252 214 10
252 218 9
252 222 8
253 226 7
253 230 6
253 234 5
253 238 4
254 242 3
254 246 2
254 250 1
254 254 0
239 0 64
239 4 62
239 8 61
239 12 60
240 16 59
240 20 58
240 24 57
240 28 56
241 32 55
241 36 54
241 40 53
241 44 52
242 48 51
242 52 50
242 56 49
242 60 48
243 64 47
243 68 46
243 72 45
243 76 44
244 80 43
244 85 42
244 89 41
244 93 40
245 97 39
245 101 38
245 105 37
245 109 36
246 113 35
246 117 34
246 121 33
246 125 32
247 129 31
247 133 30
247 137 29
247 141 28
248 145 27
248 149 26
248 153 25
248 157 24
249 161 23
249 165 22
249 169 21
249 174 20
250 178 19
250 182 18
250 186 17
250 190 16
251 194 15
251 198 14
251 202 13
251 206 12
252 210 11
252 214 10
252 218 9
252 222 8
253 226 7
253 230 6
253 234 5
253 238 4
254 242 3
254 246 2
254 250 1
254 254 0
239 0 64
239 4 62
239 8 61
239 12 60
240 16 59
240 20 58
240 24 57
240 28 56
241 32 55
241 36 54
241 40 53
241 44 52
242 48 51
242 52 50
242 56 49
242 60 48
243 64 47
243 68 46
243 72 45
243 76 44
244 80 43
244 85 42
244 89 41
244 93 40
245 97 39
245 101 38
245 105 37
245 109 36
246 113 35
246 117 34
246 121 33
246 125 32
247 129 31
247 133 30
247 137 29
247 141 28
248 145 27
248 149 26
248 153 25
248 157 24
249 161 23
249 165 22
249 169 21
249 174 20
250 178 19
250 182 18
250 186 17
250 190 16
251 194 15
251 198 14
251 202 13
251 206 12
252 210 11
252 214 10
252 218 9
252 222 8
253 226 7
253 230 6
253 234 5
253 238 4
254 242 3
254 246 2
254 250 1
254 254 0
239 0 64
239 4 62
239 8 61
239 12 60
240 16 59
240 20 58
240 24 57
240 28 56
241 32 55
241 36 54
241 40 53
241 44 52
242 48 51
242 52 50
242 56 49
242 60 48
243 64 47
243 68 46
243 72 45
243 76 44
244 80 43
244 85 42
244 89 41
244 93 40
245 97 39
245 101 38
245 105 37
245 109 36
246 113 35
246 117 34
246 121 33
246 125 32
247 129 31
247 133 30
247 137 29
247 141 28
248 145 27
248 149 26
248 153 25
248 157 24
249 161 23
249 165 22
249 169 21
249 174 20
250 178 19
250 182 18
250 186 17
250 190 16
251 194 15
251 198 14
251 202 13
251 206 12
252 210 11
252 214 10
252 218 9
252 222 8
253 226 7
253 230 6
253 234 5
253 238 4
254 242 3
254 246 2
254 250 1
254 254 0
239 0 64
239 4 62
239 8 61
239 12 60
240 16 59
240 20 58
240 24 57
240 28 56
241 32 55
241 36 54
241 40 53
241 44 52
242 48 51
242 52 50
242 56 49
242 60 48
243 64 47
243 68 46
243 72 45
243 76 44
244 80 43
244 85 42
244 89 41
244 93 40
245 97 39
245 101 38
245 105 37
245 109 36
246 113 35
246 117 34
246 121 33
246 125 32
247 129 31
247 133 30
247 137 29
247 141 28
248 145 27
248 149 26
248 153 25
248 157 24
249 161 23
249 165 22
249 169 21
249 174 20
250 178 19
250 182 18
250 186 17
250 190 16
251 194 15
251 198 14
251 202 13
251 206 12
252 210 11
252 214 10
252 218 9
252 222 8
253 226 7
253 230 6
253 234 5
253 238 4
254 242 3
254 246 2
254 250 1
254 254 0
239 0 64
239 4 62
239 8 61
239 12 60
240 16 59
240 20 58
240 24 57
240 28 56
241 32 55
241 36 54
241 40 53
241 44 52
242 48 51
242 52 50
242 56 49
242 60 48
243 64 47
243 68 46
243 72 45
243 76 44
244 80 43
244 85 42
244 89 41
244 93 40
245 97 39
245 101 38
245 105 37
245 109 36
246 113 35
246 117 34
246 121 33
246 125 32
247 129 31
247 133 30
247 137 29
247 141 28
248 145 27
248 149 26
248 153 25
248 157 24
249 161 23
249 165 22
249 169 21
249 174 20
250 178 19
250 182 18
250 186 17
250 190 16
251 194 15
251 198 14
251 202 13
251 206 12
252 210 11
252 214 10
252 218 9
252 222 8
253 226 7
253 230 6
253 234 5
253 238 4
254 242 3
254 246 2
254 250 1
254 254 0
239 0 64
239 4 62
239 8 61
239 12 60
240 16 59
240 20 58
240 24 57
240 28 56
241 32 55
241 36 54
241 40 53
241 44 52
242 48 51
242 52 50
242 56 49
242 60 48
243 64 47
243 68 46
243 72 45
243 76 44
244 80 43
244 85 42
244 89 41
244 93 40
245 97 39
245 101 38
245 105 37
245 109 36
246 113 35
246 117 34
246 121 33
246 125 32
247 129 31
247 133 30
247 137 29
247 141 28
248 145 27
248 149 26
248 153 25
248 157 24
249 161 23
249 165 22
249 169 21
249 174 20
250 178 19
250 182 18
250 186 17
250 190 16
251 194 15
251 198 14
251 202 13
251 206 12
252 210 11
252 214 10
252 218 9
252 222 8
253 226 7
253 230 6
253 234 5
253 238 4
254 242 3
254 246 2
254 250 1
254 254 0
239 0 64
239 4 62
239 8 61
239 12 60
240 16 59
240 20 58
240 24 57
240 28 56
241 32 55
241 36 54
241 40 53
241 44 52
242 48 51
242 52 50
242 56 49
242 60 48
243 64 47
243 68 46
243 72 45
243 76 44
244 80 43
244 85 42
244 89 41
244 93 40
245 97 39
245 101 38
245 105 37
245 109 36
246 113 35
246 117 34
246 121 33
246 125 32
247 129 31
247 133 30
247 137 29
247 141 28
248 145 27
248 149 26
248 153 25
248 157 24
249 161 23
249 165 22
249 169 21
249 174 20
250 178 19
250 182 18
250 186 17
250 190 16
251 194 15
251 198 14
251 202 13
251 206 12
252 210 11
252 214 10
252 218 9
252 222 8
253 226 7
253 230 6
253 234 5
253 238 4
254 242 3
254 246 2
254 250 1
254 254 0
239 0 64
239 4 62
239 8 61
239 12 60
240 16 59
240 20 58
240 24 57
240 28 56
241 32 55
241 36 54
241 40 53
241 44 52
242 48 51
242 52 50
242 56 49
242 60 48
243 64 47
243 68 46
243 72 45
243 76 44
244 80 43
244 85 42
244 89 41
244 93 40
245 97 39
245 101 38
245 105 37
245 109 36
246 113 35
246 117 34
246 121 33
246 125 32
247 129 31
247 133 30
247 137 29
247 141 28
248 145 27
248 149 26
248 153 25
248 157 24
249 161 23
249 165 22
249 169 21
249 174 20
250 178 19
250 182 18
250 186 17
250 190 16
251 194 15
251 198 14
251 202 13
251 206 12
252 210 11
252 214 10
252 218 9
252 222 8
253 226 7
253 230 6
253 234 5
253 238 4
254 242 3
254 246 2
254 250 1
254 254 0
239 0 64
239 4 62
239 8 61
239 12 60
240 16 59
240 20 58
240 24 57
240 28 56
241 32 55
241 36 54
241 40 53
241 44 52
242 48 51
242 52 50
242 56 49
242 60 48
243 64 47
243 68 46
243 72 45
243 76 44
244 80 43
244 85 42
244 89 41
244 93 40
245 97 39
245 101 38
245 105 37
245 109 36
246 113 35
246 117 34
246 121 33
246 125 32
247 129 31
247 133 30
247 137 29
247 141 28
248 145 27
248 149 26
248 153 25
248 157 24
249 161 23
249 165 22
249 169 21
249 174 20
250 178 19
250 182 18
250 186 17
250 190 16
251 194 15
251 198 14
251 202 13
251 206 12
252 210 11
252 214 10
252 218 9
252 222 8
253 226 7
253 230 6
253 234 5
253 238 4
254 242 3
254 246 2
254 250 1
254 254 0
239 0 64
239 4 62
239 8 61
239 12 60
240 16 59
240 20 58
240 24 57
240 28 56
241 32 55
241 36 54
241 40 53
241 44 52
242 48 51
242 52 50
242 56 49
242 60 48
243 64 47
243 68 46
243 72 45
243 76 44
244 80 43
244 85 42
244 89 41
244 93 40
245 97 39
245 101 38
245 105 37
245 109 36
246 113 35
246 117 34
246 121 33
246 125 32
247 129 31
247 133 30
247 137 29
247 141 28
248 145 27
248 149 26
248 153 25
248 157 24
249 161 23
249 165 22
249 169 21
249 174 20
250 178 19
250 182 18
250 186 17
250 190 16
251 194 15
251 198 14
251 202 13
251 206 12
252 210 11
252 214 10
252 218 9
252 222 8
253 226 7
253 230 6
253 234 5
253 238 4
254 242 3
254 246 2
254 250 1
254 254 0
239 0 64
239 4 62
239 8 61
239 12 60
240 16 59
240 20 58
240 24 57
240 28 56
241 32 55
241 36 54
241 40 53
241 44 52
242 48 51
242 52 50
242 56 49
242 60 48
243 64 47
243 68 46
243 72 45
243 76 44
244 80 43
244 85 42
244 89 41
244 93 40
245 97 39
245 101 38
245 105 37
245 109 36
246 113 35
246 117 34
246 121 33
246 125 32
247 129 31
247 133 30
247 137 29
247 141 28
248 145 27
248 149 26
248 153 25
248 157 24
249 161 23
249 165 22
249 169 21
249 174 20
250 178 19
250 182 18
250 186 17
250 190 16
251 194 15
251 198 14
251 202 13
251 206 12
252 210 11
252 214 10
252 218 9
252 222 8
253 226 7
253 230 6
253 234 5
253 238 4
254 242 3
254 246 2
254 250 1
254 254 0
239 0 64
239 4 62
239 8 61
239 12 60
240 16 59
240 20 58
240 24 57
240 28 56
241 32 55
241 36 54
241 40 53
241 44 52
242 48 51
242 52 50
242 56 49
242 60 48
243 64 47
243 68 46
243 72 45
243 76 44
244 80 43
244 85 42
244 89 41
244 93 40
245 97 39
245 101 38
245 105 37
245 109 36
246 113 35
246 117 34
246 121 33
246 125 32
247 129 31
247 133 30
247 137 29
247 141 28
248 145 27
248 149 26
248 153 25
248 157 24
249 161 23
249 165 22
249 169 21
249 174 20
250 178 19
250 182 18
250 186 17
250 190 16
251 194 15
251 198 14
251 202 13
251 206 12
252 210 11
252 214 10
252 218 9
252 222 8
253 226 7
253 230 6
253 234 5
253 238 4
254 242 3
254 246 2
254 250 1
254 254 0
239 0 64
239 4 62
239 8 61
239 12 60
240 16 59
240 20 58
240 24 57
240 28 56
241 32 55
241 36 54
241 40 53
241 44 52
242 48 51
242 52 50
242 56 49
242 60 48
243 64 47
243 68 46
243 72 45
243 76 44
244 80 43
244 85 42
244 89 41
244 93 40
245 97 39
245 101 38
245 105 37
245 109 36
246 113 35
246 117 34
246 121 33
246 125 32
247 129 31
247 133 30
247 137 29
247 141 28
248 145 27
248 149 26
248 153 25
248 157 24
249 161 23
249 165 22
249 169 21
249 174 20
250 178 19
250 182 18
250 186 17
250 190 16
251 194 15
251 198 14
251 202 13
251 206 12
252 210 11
252 214 10
252 218 9
252 222 8
253 226 7
253 230 6
253 234 5
253 238 4
254 242 3
254 246 2
254 250 1
254 254 0
239 0 64
239 4 62
239 8 61
239 12 60
240 16 59
240 20 58
240 24 57
240 28 56
241 32 55
241 36 54
241 40 53
241 44 52
242 48 51
242 52 50
242 56 49
242 60 48
243 64 47
243 68 46
243 72 45
243 76 44
244 80 43
244 85 42
244 89 41
244 93 40
245 97 39
245 101 38
245 105 37
245 109 36
246 113 35
246 117 34
246 121 33
246 125 32
247 129 31
247 133 30
247 137 29
247 141 28
248 145 27
248 149 26
248 153 25
248 157 24
249 161 23
249 165 22
249 169 21
249 174 20
250 178 19
250 182 18
250 186 17
250 190 16
251 194 15
251 198 14
251 202 13
251 206 12
252 210 11
252 214 10
252 218 9
252 222 8
253 226 7
253 230 6
253 234 5
253 238 4
254 242 3
254 246 2
254 250 1
254 254 0
239 0 64
239 4 62
239 8 61
239 12 60
240 16 59
240 20 58
240 24 57
240 28 56
241 32 55
241 36 54
241 40 53
241 44 52
242 48 51
242 52 50
242 56 49
242 60 48
243 64 47
243 68 46
243 72 45
243 76 44
244 80 43
244 85 42
244 89 41
244 93 40
245 97 39
245 101 38
245 105 37
245 109 36
246 113 35
246 117 34
246 121 33
246 125 32
247 129 31
247 133 30
247 137 29
247 141 28
248 145 27
248 149 26
248 153 25
248 157 24
249 161 23
249 165 22
249 169 21
249 174 20
250 178 19
250 182 18
250 186 17
250 190 16
251 194 15
251 198 14
251 202 13
251 206 12
252 210 11
252 214 10
252 218 9
252 222 8
253 226 7
253 230 6
253 234 5
253 238 4
254 242 3
254 246 2
254 250 1
254 254 0
239 0 64
239 4 62
239 8 61
239 12 60
240 16 59
240 20 58
240 24 57
240 28 56
241 32 55
241 36 54
241 40 53
241 44 52
242 48 51
242 52 50
242 56 49
242 60 48
243 64 47
243 68 46
243 72 45
243 76 44
244 80 43
244 85 42
244 89 41
244 93 40
245 97 39
245 101 38
245 105 37
245 109 36
246 113 35
246 117 34
246 121 33
246 125 32
247 129 31
247 133 30
247 137 29
247 141 28
248 145 27
248 149 26
248 153 25
248 157 24
249 161 23
249 165 22
249 169 21
249 174 20
250 178 19
250 182 18
250 186 17
250 190 16
251 194 15
251 198 14
251 202 13
251 206 12
252 210 11
252 214 10
252 218 9
252 222 8
253 226 7
253 230 6
253 234 5
253 238 4
254 242 3
254 246 2
254 250 1
254 254 0
239 0 64
239 4 62
239 8 61
239 12 60
240 16 59
240 20 58
240 24 57
240 28 56
241 32 55
241 36 54
241 40 53
241 44 52
242 48 51
242 52 50
242 56 49
242 60 48
243 64 47
243 68 46
243 72 45
243 76 44
244 80 43
244 85 42
244 89 41
244 93 40
245 97 39
245 101 38
245 105 37
245 109 36
246 113 35
246 117 34
246 121 33
246 125 32
247 129 31
247 133 30
247 137 29
247 141 28
248 145 27
248 149 26
248 153 25
248 157 24
249 161 23
249 165 22
249 169 21
249 174 20
250 178 19
250 182 18
250 186 17
250 190 16
251 194 15
251 198 14
251 202 13
251 206 12
252 210 11
252 214 10
252 218 9
252 222 8
253 226 7
253 230 6
253 234 5
253 238 4
254 242 3
254 246 2
254 250 1
254 254 0
239 0 64
239 4 62
239 8 61
239 12 60
240 16 59
240 20 58
240 24 57
240 28 56
241 32 55
241 36 54
241 40 53
241 44 52
242 48 51
242 52 50
242 56 49
242 60 48
243 64 47
243 68 46
243 72 45
243 76 44
244 80 43
244 85 42
244 89 41
244 93 40
245 97 39
245 101 38
245 105 37
245 109 36
246 113 35
246 117 34
246 121 33
246 125 32
247 129 31
247 133 30
247 137 29
247 141 28
248 145 27
248 149 26
248 153 25
248 157 24
249 161 23
249 165 22
249 169 21
249 174 20
250 178 19
250 182 18
250 186 17
250 190 16
251 194 15
251 198 14
251 202 13
251 206 12
252 210 11
252 214 10
252 218 9
252 222 8
253 226 7
253 230 6
253 234 5
253 238 4
254 242 3
254 246 2
254 250 1
254 254 0
239 0 64
239 4 62
239 8 61
239 12 60
240 16 59
240 20 58
240 24 57
240 28 56
241 32 55
241 36 54
241 40 53
241 44 52
242 48 51
242 52 50
242 56 49
242 60 48
243 64 47
243 68 46
243 72 45
243 76 44
244 80 43
244 85 42
244 89 41
244 93 40
245 97 39
245 101 38
245 105 37
245 109 36
246 113 35
246 117 34
246 121 33
246 125 32
247 129 31
247 133 30
247 137 29
247 141 28
248 145 27
248 149 26
248 153 25
248 157 24
249 161 23
249 165 22
249 169 21
249 174 20
250 178 19
250 182 18
250 186 17
250 190 16
251 194 15
251 198 14
251 202 13
251 206 12
252 210 11
252 214 10
252 218 9
252 222 8
253 226 7
253 230 6
253 234 5
253 238 4
254 242 3
254 246 2
254 250 1
254 254 0
239 0 64
239 4 62
239 8 61
239 12 60
240 16 59
240 20 58
240 24 57
240 28 56
241 32 55
241 36 54
241 40 53
241 44 52
242 48 51
242 52 50
242 56 49
242 60 48
243 64 47
243 68 46
243 72 45
243 76 44
244 80 43
244 85 42
244 89 41
244 93 40
245 97 39
245 101 38
245 105 37
245 109 36
246 113 35
246 117 34
246 121 33
246 125 32
247 129 31
247 133 30
247 137 29
247 141 28
248 145 27
248 149 26
248 153 25
248 157 24
249 161 23
249 165 22
249 169 21
249 174 20
250 178 19
250 182 18
250 186 17
250 190 16
251 194 15
251 198 14
251 202 13
251 206 12
252 210 11
252 214 10
252 218 9
252 222 8
253 226 7
253 230 6
253 234 5
253 238 4
254 242 3
254 246 2
254 250 1
254 254 0
239 0 64
239 4 62
239 8 61
239 12 60
240 16 59
240 20 58
240 24 57
240 28 56
241 32 55
241 36 54
241 40 53
241 44 52
242 48 51
242 52 50
242 56 49
242 60 48
243 64 47
243 68 46
243 72 45
243 76 44
244 80 43
244 85 42
244 89 41
244 93 40
245 97 39
245 101 38
245 105 37
245 109 36
246 113 35
246 117 34
246 121 33
246 125 32
247 129 31
247 133 30
247 137 29
247 141 28
248 145 27
248 149 26
248 153 25
248 157 24
249 161 23
249 165 22
249 169 21
249 174 20
250 178 19
250 182 18
250 186 17
250 190 16
251 194 15
251 198 14
251 202 13
251 206 12
252 210 11
252 214 10
252 218 9
252 222 8
253 226 7
253 230 6
253 234 5
253 238 4
254 242 3
254 246 2
254 250 1
254 254 0
239 0 64
239 4 62
239 8 61
239 12 60
240 16 59
240 20 58
240 24 57
240 28 56
241 32 55
241 36 54
241 40 53
241 44 52
242 48 51
242 52 50
242 56 49
242 60 48
243 64 47
243 68 46
243 72 45
243 76 44
244 80 43
244 85 42
244 89 41
244 93 40
245 97 39
245 101 38
245 105 37
245 109 36
246 113 35
246 117 34
246 121 33
246 125 32
247 129 31
247 133 30
247 137 29
247 141 28
248 145 27
248 149 26
248 153 25
248 157 24
249 161 23
249 165 22
249 169 21
249 174 20
250 178 19
250 182 18
250 186 17
250 190 16
251 194 15
251 198 14
251 202 13
251 206 12
252 210 11
252 214 10
252 218 9
252 222 8
253 226 7
253 230 6
253 234 5
253 238 4
254 242 3
254 246 2
254 250 1
254 254 0
239 0 64
239 4 62
239 8 61
239 12 60
240 16 59
240 20 58
240 24 57
240 28 56
241 32 55
241 36 54
241 40 53
241 44 52
242 48 51
242 52 50
242 56 49
242 60 48
243 64 47
243 68 46
243 72 45
243 76 44
244 80 43
244 85 42
244 89 41
244 93 40
245 97 39
245 101 38
245 105 37
245 109 36
246 113 35
246 117 34
246 121 33
246 125 32
247 129 31
247 133 30
247 137 29
247 141 28
248 145 27
248 149 26
248 153 25
248 157 24
249 161 23
249 165 22
249 169 21
249 174 20
250 178 19
250 182 18
250 186 17
250 190 16
251 194 15
251 198 14
251 202 13
251 206 12
252 210 11
252 214 10
252 218 9
252 222 8
253 226 7
253 230 6
253 234 5
253 238 4
254 242 3
254 246 2
254 250 1
254 254 0
239 0 64
239 4 62
239 8 61
239 12 60
240 16 59
240 20 58
240 24 57
240 28 56
241 32 55
241 36 54
241 40 53
241 44 52
242 48 51
242 52 50
242 56 49
242 60 48
243 64 47
243 68 46
243 72 45
243 76 44
244 80 43
244 85 42
244 89 41
244 93 40
245 97 39
245 101 38
245 105 37
245 109 36
246 113 35
246 117 34
246 121 33
246 125 32
247 129 31
247 133 30
247 137 29
247 141 28
248 145 27
248 149 26
248 153 25
248 157 24
249 161 23
249 165 22
249 169 21
249 174 20
250 178 19
250 182 18
250 186 17
250 190 16
251 194 15
251 198 14
251 202 13
251 206 12
252 210 11
252 214 10
252 218 9
252 222 8
253 226 7
253 230 6
253 234 5
253 238 4
254 242 3
254 246 2
254 250 1
254 254 0
239 0 64
239 4 62
239 8 61
239 12 60
240 16 59
240 20 58
240 24 57
240 28 56
241 32 55
241 36 54
241 40 53
241 44 52
242 48 51
242 52 50
242 56 49
242 60 48
243 64 47
243 68 46
243 72 45
243 76 44
244 80 43
244 85 42
244 89 41
244 93 40
245 97 39
245 101 38
245 105 37
245 109 36
246 113 35
246 117 34
246 121 33
246 125 32
247 129 31
247 133 30
247 137 29
247 141 28
248 145 27
248 149 26
248 153 25
248 157 24
249 161 23
249 165 22
249 169 21
249 174 20
250 178 19
250 182 18
250 186 17
250 190 16
251 194 15
251 198 14
251 202 13
251 206 12
252 210 11
252 214 10
252 218 9
252 222 8
253 226 7
253 230 6
253 234 5
253 238 4
254 242 3
254 246 2
254 250 1
254 254 0
239 0 64
239 4 62
239 8 61
239 12 60
240 16 59
240 20 58
240 24 57
240 28 56
241 32 55
241 36 54
241 40 53
241 44 52
242 48 51
242 52 50
242 56 49
242 60 48
243 64 47
243 68 46
243 72 45
243 76 44
244 80 43
244 85 42
244 89 41
244 93 40
245 97 39
245 101 38
245 105 37
245 109 36
246 113 35
246 117 34
246 121 33
246 125 32
247 129 31
247 133 30
247 137 29
247 141 28
248 145 27
248 149 26
248 153 25
248 157 24
249 161 23
249 165 22
249 169 21
249 174 20
250 178 19
250 182 18
250 186 17
250 190 16
251 194 15
251 198 14
251 202 13
251 206 12
252 210 11
252 214 10
252 218 9
252 222 8
253 226 7
253 230 6
253 234 5
253 238 4
254 242 3
254 246 2
254 250 1
254 254 0
239 0 64
239 4 62
239 8 61
239 12 60
240 16 59
240 20 58
240 24 57
240 28 56
241 32 55
241 36 54
241 40 53
241 44 52
242 48 51
242 52 50
242 56 49
242 60 48
243 64 47
243 68 46
243 72 45
243 76 44
244 80 43
244 85 42
244 89 41
244 93 40
245 97 39
245 101 38
245 105 37
245 109 36
246 113 35
246 117 34
246 121 33
246 125 32
247 129 31
247 133 30
247 137 29
247 141 28
248 145 27
248 149 26
248 153 25
248 157 24
249 161 23
249 165 22
249 169 21
249 174 20
250 178 19
250 182 18
250 186 17
250 190 16
251 194 15
251 198 14
251 202 13
251 206 12
252 210 11
252 214 10
252 218 9
252 222 8
253 226 7
253 230 6
253 234 5
253 238 4
254 242 3
254 246 2
254 250 1
254 254 0
239 0 64
239 4 62
239 8 61
239 12 60
240 16 59
240 20 58
240 24 57
240 28 56
241 32 55
241 36 54
241 40 53
241 44 52
242 48 51
242 52 50
242 56 49
242 60 48
243 64 47
243 68 46
243 72 45
243 76 44
244 80 43
244 85 42
244 89 41
244 93 40
245 97 39
245 101 38
245 105 37
245 109 36
246 113 35
246 117 34
246 121 33
246 125 32
247 129 31
247 133 30
247 137 29
247 141 28
248 145 27
248 149 26
248 153 25
248 157 24
249 161 23
249 165 22
249 169 21
249 174 20
250 178 19
250 182 18
250 186 17
250 190 16
251 194 15
251 198 14
251 202 13
251 206 12
252 210 11
252 214 10
252 218 9
252 222 8
253 226 7
253 230 6
253 234 5
253 238 4
254 242 3
254 246 2
254 250 1
254 254 0
239 0 64
239 4 62
239 8 61
239 12 60
240 16 59
240 20 58
240 24 57
240 28 56
241 32 55
241 36 54
241 40 53
241 44 52
242 48 51
242 52 50
242 56 49
242 60 48
243 64 47
243 68 46
243 72 45
243 76 44
244 80 43
244 85 42
244 89 41
244 93 40
245 97 39
245 101 38
245 105 37
245 109 36
246 113 35
246 117 34
246 121 33
246 125 32
247 129 31
247 133 30
247 137 29
247 141 28
248 145 27
248 149 26
248 153 25
248 157 24
249 161 23
249 165 22
249 169 21
249 174 20
250 178 19
250 182 18
250 186 17
250 190 16
251 194 15
251 198 14
251 202 13
251 206 12
252 210 11
252 214 10
252 218 9
252 222 8
253 226 7
253 230 6
253 234 5
253 238 4
254 242 3
254 246 2
254 250 1
254 254 0
239 0 64
239 4 62
239 8 61
239 12 60
240 16 59
240 20 58
240 24 57
240 28 56
241 32 55
241 36 54
241 40 53
241 44 52
242 48 51
242 52 50
242 56 49
242 60 48
243 64 47
243 68 46
243 72 45
243 76 44
244 80 43
244 85 42
244 89 41
244 93 40
245 97 39
245 101 38
245 105 37
245 109 36
246 113 35
246 117 34
246 121 33
246 125 32
247 129 31
247 133 30
247 137 29
247 141 28
248 145 27
248 149 26
248 153 25
248 157 24
249 161 23
249 165 22
249 169 21
249 174 20
250 178 19
250 182 18
250 186 17
250 190 16
251 194 15
251 198 14
251 202 13
251 206 12
252 210 11
252 214 10
252 218 9
252 222 8
253 226 7
253 230 6
253 234 5
253 238 4
254 242 3
254 246 2
254 250 1
254 254 0
239 0 64
239 4 62
239 8 61
239 12 60
240 16 59
240 20 58
240 24 57
240 28 56
241 32 55
241 36 54
241 40 53
241 44 52
242 48 51
242 52 50
242 56 49
242 60 48
243 64 47
243 68 46
243 72 45
243 76 44
244 80 43
244 85 42
244 89 41
244 93 40
245 97 39
245 101 38
245 105 37
245 109 36
246 113 35
246 117 34
246 121 33
246 125 32
247 129 31
247 133 30
247 137 29
247 141 28
248 145 27
248 149 26
248 153 25
248 157 24
249 161 23
249 165 22
249 169 21
249 174 20
250 178 19
250 182 18
250 186 17
250 190 16
251 194 15
251 198 14
251 202 13
251 206 12
252 210 11
252 214 10
252 218 9
252 222 8
253 226 7
253 230 6
253 234 5
253 238 4
254 242 3
254 246 2
254 250 1
254 254 0
239 0 64
239 4 62
239 8 61
239 12 60
240 16 59
240 20 58
240 24 57
240 28 56
241 32 55
241 36 54
241 40 53
241 44 52
242 48 51
242 52 50
242 56 49
242 60 48
243 64 47
243 68 46
243 72 45
243 76 44
244 80 43
244 85 42
244 89 41
244 93 40
245 97 39
245 101 38
245 105 37
245 109 36
246 113 35
246 117 34
246 121 33
246 125 32
247 129 31
247 133 30
247 137 29
247 141 28
248 145 27
248 149 26
248 153 25
248 157 24
249 161 23
249 165 22
249 169 21
249 174 20
250 178 19
250 182 18
250 186 17
250 190 16
251 194 15
251 198 14
251 202 13
251 206 12
252 210 11
252 214 10
252 218 9
252 222 8
253 226 7
253 230 6
253 234 5
253 238 4
254 242 3
254 246 2
254 250 1
254 254 0
